{
.appVersion = "3241";
.formatVersion = 3;
DisplayStrings = (
"b//acc: 
  
Accelerationism
and the Bahá’í Faith  

Eli Heuer  ",
"ABCDEFGHIJKLMNOPQRSTUVWXYZ
abcdefghijklmnopqrstuvwxyz
1234567890 ",
"ABCDEFGHIJ
KLMNOPQRS
TUVWXYZ
1234567890
abcdefghijklm
nopqrstuvwxyz
Rena Regular",
"Libre Software
and the International
Typographic Style. 

 

",
" Eli Heuer 
nnnnnnnnnnnn oooooooooooonoooooooooooo nnnnnnnnnnnnnnnnnononoooo oooonononnnnnoooonononnnn nnnnononoooonHHHHHHHHHHHH OOOOOOOOOOOOnOOOOOOOOOOOO HHHHHHHHHHHHnHHHHOHOHOOOO OOOOHOHOHHHHnOOOOHOHOHHHH HHHHOHOHOOOOnHHnnHOHOnnOO HHooHOHOooOOnnnHHHOHOOOnn OOooHOHOHHoonnnHHnonoHHoo nnOOnonoOOoonnnanonoaoo uuanonoaoonuuannonooaoo HHAHOHOAOO 
",
" Crypto and Free Informatifion  

The problem of monetizing digital content is reproducible information is effectively infinite in supply, leaving it impossible to price, free like air. Primitive attempts at digital monetization try to create an artificial scarcity through paywalls and DRM, technically ineffective against any piracy but backed by socialized pressure and threats of legal action. These models of course unethically restrict the free flow of information.   

NFTs and memecoins are an alternative form of creating artificial digital scarcity, so it’s easy to make the intuitive leap that they also negatively limit free information. However, by changing the value proposition of digital goods from a scarcity based on limiting information access to one based on provable provenance, they have no need to rely on gatekeeping access to NFT content to secure value. This is a great boon for the freedom of information movement.

Blockchain is a naturalistic technology, it would have been developed in a thousand timelines, just as the CPU would have, just as double book accounting or abstracted money would have—or AI will—but copyright law was a confusing and awkward historical aberration.


glyphs = (
{
color = 5;
glyphname = A;
kernLeft = A;
kernRight = A;
lastChange = "2024-03-14 05:28:30 +0000";
layers = (
{
layerId = m01;
shapes = (
{
closed = 1;
nodes = (
(76,0,l),
(92,16,l),
(156,180,l),
(172,196,l),
(516,196,l),
(532,180,l),
(596,16,l),
(612,0,l),
(664,0,l),
(680,16,l),
(680,104,l),
(432,784,l),
(416,800,l),
(272,800,l),
(256,784,l),
(8,104,l),
(8,16,l),
(24,0,l)
);
},
{
closed = 1;
nodes = (
(204,312,l),
(324,668,l),
(364,668,l),
(484,312,l),
(468,296,l),
(220,296,l)
);
}
);
width = 688;
}
);
unicode = 65;
},
{
color = 5;
glyphname = B;
kernLeft = H;
kernRight = B;
lastChange = "2024-03-22 18:41:24 +0000";
layers = (
{
layerId = m01;
shapes = (
{
closed = 1;
nodes = (
(408,0,ls),
(540,0,o),
(664,56,o),
(664,232,cs),
(664,336,o),
(608,384,o),
(544,408,c),
(544,424,l),
(600,448,o),
(648,504,o),
(648,584,cs),
(648,744,o),
(514,800,o),
(392,800,cs),
(72,800,l),
(56,784,l),
(56,16,l),
(72,0,l)
);
},
{
closed = 1;
nodes = (
(524,496,o),
(476,468,o),
(380,468,cs),
(188,468,l),
(172,484,l),
(172,676,l),
(188,692,l),
(372,692,ls),
(476,692,o),
(524,672,o),
(524,584,cs)
);
},
{
closed = 1;
nodes = (
(540,144,o),
(492,108,o),
(404,108,cs),
(188,108,l),
(172,124,l),
(172,348,l),
(188,364,l),
(380,364,ls),
(492,364,o),
(540,336,o),
(540,232,cs)
);
}
);
width = 696;
}
);
unicode = 66;
},
{
color = 0;
glyphname = C;
kernLeft = O;
kernRight = C;
lastChange = "2024-03-27 06:13:05 +0000";
layers = (
{
layerId = m01;
shapes = (
{
closed = 1;
nodes = (
(616,-16,o),
(716,100,o),
(732,236,c),
(716,252,l),
(636,252,l),
(620,236,l),
(600,156,o),
(548,88,o),
(416,88,cs),
(232,88,o),
(152,216,o),
(152,400,cs),
(152,584,o),
(232,712,o),
(416,712,cs),
(548,712,o),
(600,656,o),
(620,576,c),
(636,560,l),
(716,560,l),
(732,576,l),
(716,712,o),
(616,816,o),
(416,816,cs),
(168,816,o),
(40,648,o),
(40,400,cs),
(40,152,o),
(168,-16,o),
(416,-16,cs)
);
}
);
width = 748;
},
{
associatedMasterId = m01;
layerId = "64175680-2DAC-4C0C-AE61-49F6460695C3";
name = "Mar 25, 24 at 23:29";
shapes = (
{
closed = 1;
nodes = (
(664,-16,o),
(792,152,o),
(792,400,cs),
(792,648,o),
(664,816,o),
(416,816,cs),
(168,816,o),
(40,648,o),
(40,400,cs),
(40,152,o),
(168,-16,o),
(416,-16,cs)
);
},
{
closed = 1;
nodes = (
(232,88,o),
(152,216,o),
(152,400,cs),
(152,584,o),
(232,712,o),
(416,712,cs),
(600,712,o),
(680,584,o),
(680,400,cs),
(680,216,o),
(600,88,o),
(416,88,cs)
);
}
);
visible = 1;
width = 832;
}
);
unicode = 67;
},
{
color = 5;
glyphname = D;
kernLeft = H;
kernRight = O;
lastChange = "2024-03-15 10:25:43 +0000";
layers = (
{
layerId = m01;
shapes = (
{
closed = 1;
nodes = (
(308,0,ls),
(592,0,o),
(684,160,o),
(684,400,cs),
(684,640,o),
(592,800,o),
(308,800,cs),
(72,800,l),
(56,784,l),
(56,16,l),
(72,0,l)
);
},
{
closed = 1;
nodes = (
(172,124,l),
(172,676,l),
(188,692,l),
(296,692,ls),
(512,692,o),
(568,596,o),
(568,400,cs),
(568,208,o),
(512,108,o),
(296,108,cs),
(188,108,l)
);
}
);
width = 716;
}
);
unicode = 68;
},
{
color = 5;
glyphname = E;
kernLeft = H;
kernRight = E;
lastChange = "2024-03-24 03:40:49 +0000";
layers = (
{
layerId = m01;
shapes = (
{
closed = 1;
nodes = (
(592,0,l),
(608,16,l),
(608,80,l),
(592,96,l),
(192,96,l),
(176,112,l),
(176,352,l),
(192,368,l),
(568,368,l),
(584,384,l),
(584,448,l),
(568,464,l),
(192,464,l),
(176,480,l),
(176,688,l),
(192,704,l),
(592,704,l),
(608,720,l),
(608,784,l),
(592,800,l),
(80,800,l),
(64,784,l),
(64,16,l),
(80,0,l)
);
}
);
width = 656;
}
);
unicode = 69;
},
{
color = 5;
glyphname = F;
kernLeft = H;
kernRight = F;
lastChange = "2024-03-28 16:37:44 +0000";
layers = (
{
layerId = m01;
shapes = (
{
closed = 1;
nodes = (
(152,0,l),
(168,16,l),
(168,344,l),
(180,356,l),
(496,356,l),
(512,372,l),
(512,436,l),
(496,452,l),
(180,452,l),
(168,464,l),
(168,692,l),
(180,704,l),
(560,704,l),
(576,720,l),
(576,784,l),
(560,800,l),
(72,800,l),
(56,784,l),
(56,16,l),
(72,0,l)
);
}
);
width = 608;
}
);
unicode = 70;
},
{
color = 5;
glyphname = G;
kernLeft = G;
kernRight = G;
lastChange = "2024-03-15 10:27:30 +0000";
layers = (
{
layerId = m01;
shapes = (
{
closed = 1;
nodes = (
(500,-16,o),
(564,24,o),
(620,80,c),
(636,80,l),
(652,16,l),
(668,0,l),
(724,0,l),
(740,16,l),
(740,408,l),
(724,424,l),
(388,424,l),
(372,408,l),
(372,332,l),
(388,316,l),
(608,316,l),
(624,300,l),
(624,188,o),
(568,92,o),
(396,92,cs),
(236,92,o),
(148,216,o),
(148,400,cs),
(148,584,o),
(236,708,o),
(408,708,cs),
(532,708,o),
(600,652,o),
(624,572,c),
(636,560,l),
(728,560,l),
(740,572,l),
(716,688,o),
(624,816,o),
(408,816,cs),
(168,816,o),
(32,640,o),
(32,400,cs),
(32,160,o),
(168,-16,o),
(396,-16,cs)
);
}
);
width = 780;
},
{
associatedMasterId = m01;
layerId = "51D1C8E2-FE34-4DA9-B6DB-6F3F79AC0821";
name = "Mar 13, 24 at 21:47";
shapes = (
{
closed = 1;
nodes = (
(500,-16,o),
(564,24,o),
(620,80,c),
(636,80,l),
(652,16,l),
(668,0,l),
(724,0,l),
(740,16,l),
(740,408,l),
(724,424,l),
(388,424,l),
(372,408,l),
(372,332,l),
(388,316,l),
(608,316,l),
(624,300,l),
(624,188,o),
(568,92,o),
(396,92,cs),
(236,92,o),
(148,216,o),
(148,400,cs),
(148,584,o),
(236,708,o),
(408,708,cs),
(532,708,o),
(600,652,o),
(624,572,c),
(636,560,l),
(728,560,l),
(740,572,l),
(716,688,o),
(624,816,o),
(408,816,cs),
(168,816,o),
(32,640,o),
(32,400,cs),
(32,160,o),
(168,-16,o),
(396,-16,cs)
);
}
);
width = 780;
}
);
unicode = 71;
},
{
color = 5;
glyphname = H;
kernLeft = H;
kernRight = H;
lastChange = "2024-03-26 06:25:55 +0000";
layers = (
{
layerId = m01;
shapes = (
{
closed = 1;
nodes = (
(160,0,l),
(176,16,l),
(176,356,l),
(188,368,l),
(540,368,l),
(552,356,l),
(552,16,l),
(568,0,l),
(648,0,l),
(664,16,l),
(664,784,l),
(648,800,l),
(568,800,l),
(552,784,l),
(552,476,l),
(540,464,l),
(188,464,l),
(176,476,l),
(176,784,l),
(160,800,l),
(80,800,l),
(64,784,l),
(64,16,l),
(80,0,l)
);
}
);
width = 728;
}
);
unicode = 72;
},
{
color = 5;
glyphname = I;
lastChange = "2024-03-27 06:16:13 +0000";
layers = (
{
layerId = m01;
shapes = (
{
closed = 1;
nodes = (
(156,0,l),
(172,16,l),
(168,784,l),
(152,800,l),
(72,800,l),
(56,784,l),
(60,16,l),
(76,0,l)
);
}
);
width = 228;
}
);
unicode = 73;
},
{
color = 5;
glyphname = J;
lastChange = "2024-03-15 17:37:15 +0000";
layers = (
{
layerId = m01;
shapes = (
{
closed = 1;
nodes = (
(424,-16,o),
(492,92,o),
(492,216,cs),
(492,784,l),
(476,800,l),
(392,800,l),
(376,784,l),
(376,216,ls),
(376,124,o),
(332,92,o),
(252,92,cs),
(152,92,o),
(140,160,o),
(140,204,cs),
(140,224,l),
(124,240,l),
(40,240,l),
(24,224,l),
(24,204,ls),
(24,128,o),
(60,-16,o),
(252,-16,cs)
);
}
);
width = 532;
}
);
unicode = 74;
},
{
color = 5;
glyphname = K;
lastChange = "2024-03-15 17:41:08 +0000";
layers = (
{
layerId = m01;
shapes = (
{
closed = 1;
nodes = (
(148,0,l),
(164,16,l),
(164,248,l),
(172,264,l),
(276,368,l),
(292,368,l),
(564,12,l),
(584,0,l),
(628,0,l),
(644,16,l),
(644,92,l),
(368,448,l),
(368,464,l),
(620,708,l),
(620,784,l),
(604,800,l),
(572,800,l),
(548,784,l),
(180,412,l),
(164,412,l),
(164,784,l),
(148,800,l),
(64,800,l),
(48,784,l),
(48,16,l),
(64,0,l)
);
}
);
width = 676;
}
);
unicode = 75;
},
{
color = 5;
glyphname = L;
lastChange = "2024-03-15 17:48:14 +0000";
layers = (
{
layerId = m01;
shapes = (
{
closed = 1;
nodes = (
(548,0,l),
(564,16,l),
(564,88,l),
(548,104,l),
(180,104,l),
(164,120,l),
(164,784,l),
(148,800,l),
(64,800,l),
(48,784,l),
(48,16,l),
(64,0,l)
);
}
);
width = 588;
}
);
unicode = 76;
},
{
color = 5;
glyphname = M;
lastChange = "2024-03-15 17:56:01 +0000";
layers = (
{
layerId = m01;
shapes = (
{
closed = 1;
nodes = (
(148,0,l),
(164,16,l),
(164,560,l),
(180,560,l),
(404,16,l),
(420,0,l),
(512,0,l),
(528,16,l),
(752,560,l),
(768,560,l),
(768,16,l),
(784,0,l),
(868,0,l),
(884,16,l),
(884,784,l),
(868,800,l),
(748,800,l),
(732,784,l),
(476,148,l),
(460,148,l),
(196,784,l),
(180,800,l),
(64,800,l),
(48,784,l),
(48,16,l),
(64,0,l)
);
}
);
width = 932;
}
);
unicode = 77;
},
{
color = 5;
glyphname = N;
lastChange = "2024-03-15 17:58:44 +0000";
layers = (
{
layerId = m01;
shapes = (
{
closed = 1;
nodes = (
(148,0,l),
(164,16,l),
(164,608,l),
(180,608,l),
(564,16,l),
(580,0,l),
(684,0,l),
(700,16,l),
(700,784,l),
(684,800,l),
(600,800,l),
(584,784,l),
(584,196,l),
(568,196,l),
(184,784,l),
(168,800,l),
(64,800,l),
(48,784,l),
(48,16,l),
(64,0,l)
);
}
);
width = 748;
}
);
unicode = 78;
},
{
color = 5;
glyphname = O;
kernLeft = O;
kernRight = O;
lastChange = "2024-03-26 06:28:19 +0000";
layers = (
{
layerId = m01;
shapes = (
{
closed = 1;
nodes = (
(664,-16,o),
(792,152,o),
(792,400,cs),
(792,648,o),
(664,816,o),
(416,816,cs),
(168,816,o),
(40,648,o),
(40,400,cs),
(40,152,o),
(168,-16,o),
(416,-16,cs)
);
},
{
closed = 1;
nodes = (
(232,88,o),
(152,216,o),
(152,400,cs),
(152,584,o),
(232,712,o),
(416,712,cs),
(600,712,o),
(680,584,o),
(680,400,cs),
(680,216,o),
(600,88,o),
(416,88,cs)
);
}
);
width = 832;
}
);
unicode = 79;
},
{
color = 5;
glyphname = P;
lastChange = "2024-03-28 17:02:07 +0000";
layers = (
{
layerId = m01;
shapes = (
{
closed = 1;
nodes = (
(144,0,l),
(160,16,l),
(160,332,l),
(172,344,l),
(348,344,ls),
(496,344,o),
(612,412,o),
(612,572,cs),
(612,732,o),
(508,800,o),
(348,800,cs),
(64,800,l),
(48,784,l),
(48,16,l),
(64,0,l)
);
},
{
closed = 1;
nodes = (
(160,448,l),
(160,692,l),
(172,704,l),
(348,704,ls),
(452,704,o),
(500,664,o),
(500,572,cs),
(500,480,o),
(452,440,o),
(348,440,cs),
(172,440,l)
);
}
);
width = 628;
}
);
unicode = 80;
},
{
color = 5;
glyphname = Q;
lastChange = "2024-03-15 18:24:29 +0000";
layers = (
{
layerId = m01;
shapes = (
{
closed = 1;
nodes = (
(488,-16,o),
(564,12,o),
(620,48,c),
(636,48,l),
(680,0,l),
(736,0,l),
(752,16,l),
(752,92,l),
(716,128,l),
(716,144,l),
(760,216,o),
(784,276,o),
(784,400,cs),
(784,640,o),
(648,816,o),
(408,816,cs),
(168,816,o),
(32,640,o),
(32,400,cs),
(32,160,o),
(168,-16,o),
(408,-16,cs)
);
},
{
closed = 1;
nodes = (
(236,88,o),
(144,216,o),
(144,400,cs),
(144,584,o),
(236,708,o),
(408,708,cs),
(580,708,o),
(672,584,o),
(672,400,cs),
(672,320,o),
(660,264,o),
(636,216,c),
(620,216,l),
(476,368,l),
(460,384,l),
(424,384,l),
(408,368,l),
(408,284,l),
(420,268,l),
(544,144,l),
(544,128,l),
(512,104,o),
(464,88,o),
(408,88,cs)
);
}
);
width = 816;
}
);
unicode = 81;
},
{
color = 5;
glyphname = R;
kernLeft = R;
kernRight = R;
lastChange = "2024-03-19 17:15:06 +0000";
layers = (
{
layerId = m01;
shapes = (
{
closed = 1;
nodes = (
(176,480,l),
(176,672,l),
(192,688,l),
(400,688,ls),
(498,688,o),
(552,674,o),
(552,576,cs),
(552,486,o),
(498,464,o),
(400,464,cs),
(192,464,l)
);
},
{
closed = 1;
nodes = (
(160,0,l),
(176,16,l),
(176,336,l),
(192,352,l),
(352,352,l),
(368,336,l),
(560,16,l),
(576,0,l),
(640,0,l),
(656,16,l),
(656,80,l),
(496,344,l),
(496,360,l),
(600,384,o),
(672,456,o),
(672,576,cs),
(672,740,o),
(566,800,o),
(408,800,cs),
(72,800,l),
(56,784,l),
(56,16,l),
(72,0,l)
);
}
);
width = 712;
}
);
unicode = 82;
},
{
color = 5;
glyphname = S;
lastChange = "2024-03-15 18:35:30 +0000";
layers = (
{
layerId = m01;
shapes = (
{
closed = 1;
nodes = (
(560,-16,o),
(652,92,o),
(652,216,cs),
(652,376,o),
(536,436,o),
(376,456,cs),
(216,480,o),
(160,504,o),
(160,596,cs),
(160,664,o),
(216,708,o),
(320,708,cs),
(468,708,o),
(512,668,o),
(512,576,c),
(528,560,l),
(612,560,l),
(628,576,l),
(628,748,o),
(504,816,o),
(332,816,cs),
(124,816,o),
(44,696,o),
(44,596,cs),
(44,456,o),
(148,388,o),
(308,368,cs),
(468,344,o),
(536,320,o),
(536,216,cs),
(536,128,o),
(448,92,o),
(344,92,cs),
(208,92,o),
(136,132,o),
(136,248,c),
(120,264,l),
(36,264,l),
(20,248,l),
(20,76,o),
(148,-16,o),
(344,-16,cs)
);
}
);
width = 676;
}
);
unicode = 83;
},
{
color = 5;
glyphname = T;
kernLeft = T;
kernRight = T;
lastChange = "2024-03-27 17:51:35 +0000";
layers = (
{
layerId = m01;
shapes = (
{
closed = 1;
nodes = (
(336,0,l),
(352,16,l),
(352,692,l),
(364,704,l),
(568,704,l),
(584,720,l),
(584,784,l),
(568,800,l),
(24,800,l),
(8,784,l),
(8,720,l),
(24,704,l),
(228,704,l),
(240,692,l),
(240,16,l),
(256,0,l)
);
}
);
width = 592;
}
);
unicode = 84;
},
{
color = 5;
glyphname = U;
lastChange = "2024-03-15 18:46:12 +0000";
layers = (
{
layerId = m01;
shapes = (
{
closed = 1;
nodes = (
(552,-16,o),
(664,104,o),
(664,288,cs),
(664,784,l),
(648,800,l),
(568,800,l),
(552,784,l),
(552,288,ls),
(552,172,o),
(492,88,o),
(356,88,cs),
(220,88,o),
(164,172,o),
(164,288,cs),
(164,784,l),
(148,800,l),
(64,800,l),
(48,784,l),
(48,288,ls),
(48,104,o),
(164,-16,o),
(356,-16,cs)
);
}
);
width = 712;
}
);
unicode = 85;
},
{
color = 5;
glyphname = V;
lastChange = "2024-03-15 18:54:27 +0000";
layers = (
{
layerId = m01;
shapes = (
{
closed = 1;
nodes = (
(388,0,l),
(404,16,l),
(668,708,l),
(668,784,l),
(652,800,l),
(592,800,l),
(576,784,l),
(352,160,l),
(332,160,l),
(108,784,l),
(92,800,l),
(32,800,l),
(16,784,l),
(16,708,l),
(276,16,l),
(292,0,l)
);
}
);
width = 684;
}
);
unicode = 86;
},
{
color = 5;
glyphname = W;
lastChange = "2024-03-15 19:03:57 +0000";
layers = (
{
layerId = m01;
shapes = (
{
closed = 1;
nodes = (
(308,0,l),
(324,16,l),
(492,616,l),
(508,616,l),
(676,16,l),
(692,0,l),
(788,0,l),
(804,16,l),
(984,708,l),
(984,784,l),
(968,800,l),
(912,800,l),
(896,784,l),
(748,208,l),
(732,208,l),
(568,784,l),
(552,800,l),
(448,800,l),
(432,784,l),
(268,208,l),
(252,208,l),
(104,784,l),
(88,800,l),
(32,800,l),
(16,784,l),
(16,708,l),
(196,16,l),
(212,0,l)
);
}
);
width = 1000;
}
);
unicode = 87;
},
{
color = 5;
glyphname = X;
lastChange = "2024-03-15 19:06:42 +0000";
layers = (
{
layerId = m01;
shapes = (
{
closed = 1;
nodes = (
(72,0,l),
(96,16,l),
(332,320,l),
(348,320,l),
(584,16,l),
(608,0,l),
(648,0,l),
(664,16,l),
(664,92,l),
(416,400,l),
(416,420,l),
(656,708,l),
(656,784,l),
(640,800,l),
(596,800,l),
(572,784,l),
(348,492,l),
(332,492,l),
(104,784,l),
(80,800,l),
(40,800,l),
(24,784,l),
(24,708,l),
(264,420,l),
(264,400,l),
(16,92,l),
(16,16,l),
(32,0,l)
);
}
);
width = 680;
}
);
unicode = 88;
},
{
color = 5;
glyphname = Y;
lastChange = "2024-03-15 19:16:31 +0000";
layers = (
{
layerId = m01;
shapes = (
{
closed = 1;
nodes = (
(608,708,l),
(608,784,l),
(592,800,l),
(552,800,l),
(528,784,l),
(324,448,l),
(300,448,l),
(96,784,l),
(72,800,l),
(32,800,l),
(16,784,l),
(16,708,l),
(256,320,l),
(256,16,l),
(272,0,l),
(352,0,l),
(368,16,l),
(368,320,l)
);
}
);
width = 624;
}
);
unicode = 89;
},
{
color = 5;
glyphname = Z;
lastChange = "2024-03-15 19:17:27 +0000";
layers = (
{
layerId = m01;
shapes = (
{
closed = 1;
nodes = (
(572,0,l),
(588,16,l),
(588,88,l),
(572,104,l),
(156,104,l),
(156,120,l),
(552,676,l),
(568,712,l),
(568,784,l),
(552,800,l),
(44,800,l),
(28,784,l),
(28,712,l),
(44,696,l),
(428,696,l),
(428,680,l),
(28,128,l),
(16,104,l),
(16,16,l),
(32,0,l)
);
}
);
width = 604;
}
);
unicode = 90;
},
{
color = 5;
glyphname = a;
kernLeft = a;
kernRight = a;
lastChange = "2024-03-27 07:40:33 +0000";
layers = (
{
layerId = m01;
shapes = (
{
closed = 1;
nodes = (
(320,-16,o),
(372,36,o),
(396,68,c),
(408,68,l),
(416,20,o),
(444,0,o),
(504,0,cs),
(520,0,l),
(536,16,l),
(536,72,l),
(520,88,l),
(504,88,o),
(496,96,o),
(496,112,cs),
(496,392,ls),
(496,528,o),
(432,592,o),
(280,592,cs),
(112,592,o),
(64,504,o),
(64,424,cs),
(64,416,l),
(80,400,l),
(144,400,l),
(160,416,l),
(160,424,ls),
(160,476,o),
(208,508,o),
(280,508,cs),
(360,508,o),
(396,476,o),
(396,400,cs),
(396,356,l),
(384,344,l),
(280,344,ls),
(128,344,o),
(24,296,o),
(24,168,cs),
(24,56,o),
(112,-16,o),
(224,-16,cs)
);
},
{
closed = 1;
nodes = (
(176,68,o),
(128,104,o),
(128,168,cs),
(128,232,o),
(168,268,o),
(280,268,cs),
(384,268,l),
(396,256,l),
(396,208,ls),
(396,136,o),
(336,68,o),
(240,68,cs)
);
}
);
width = 544;
}
);
unicode = 97;
},
{
color = 5;
glyphname = aacute;
kernLeft = a;
kernRight = a;
lastChange = "2024-03-14 05:28:30 +0000";
layers = (
{
layerId = m01;
shapes = (
{
ref = a;
},
{
closed = 1;
nodes = (
(312,656,l),
(344,672,l),
(408,800,l),
(408,816,l),
(392,832,l),
(336,832,l),
(304,816,l),
(248,688,l),
(248,672,l),
(264,656,l)
);
}
);
width = 568;
}
);
unicode = 225;
},
{
color = 5;
glyphname = b;
lastChange = "2024-03-25 09:23:55 +0000";
layers = (
{
layerId = m01;
shapes = (
{
closed = 1;
nodes = (
(56,760,l),
(56,16,l),
(72,0,l),
(136,0,l),
(152,16,l),
(160,56,l),
(172,56,l),
(200,16,o),
(248,-16,o),
(320,-16,cs),
(468,-16,o),
(556,112,o),
(556,288,cs),
(556,464,o),
(472,592,o),
(320,592,cs),
(248,592,o),
(200,552,o),
(172,512,c),
(160,512,l),
(160,760,l),
(144,776,l),
(72,776,l)
);
},
{
closed = 1;
nodes = (
(400,500,o),
(452,412,o),
(452,288,cs),
(452,160,o),
(400,76,o),
(304,76,cs),
(216,76,o),
(152,160,o),
(152,288,cs),
(152,412,o),
(216,500,o),
(304,500,cs)
);
}
);
width = 600;
}
);
unicode = 98;
},
{
color = 5;
glyphname = c;
kernLeft = o;
kernRight = c;
lastChange = "2024-03-28 17:26:55 +0000";
layers = (
{
layerId = m01;
shapes = (
{
closed = 1;
nodes = (
(448,-16,o),
(536,80,o),
(552,184,c),
(536,200,l),
(460,200,l),
(444,184,l),
(436,136,o),
(388,76,o),
(296,76,cs),
(184,76,o),
(132,156,o),
(132,288,cs),
(132,420,o),
(184,500,o),
(296,500,cs),
(388,500,o),
(436,440,o),
(444,392,c),
(460,376,l),
(536,376,l),
(552,392,l),
(536,496,o),
(448,592,o),
(296,592,cs),
(120,592,o),
(28,464,o),
(28,288,cs),
(28,104,o),
(124,-16,o),
(296,-16,cs)
);
}
);
width = 576;
},
{
associatedMasterId = m01;
layerId = "76AB318C-2308-45C6-8374-9EA02209C007";
name = "Mar 25, 24 at 02:20";
shapes = (
{
closed = 1;
nodes = (
(476,-16,o),
(568,112,o),
(568,288,cs),
(568,464,o),
(476,592,o),
(300,592,cs),
(124,592,o),
(32,464,o),
(32,288,cs),
(32,112,o),
(124,-16,o),
(300,-16,cs)
);
},
{
closed = 1;
nodes = (
(180,76,o),
(136,168,o),
(136,288,cs),
(136,408,o),
(180,500,o),
(300,500,cs),
(420,500,o),
(464,408,o),
(464,288,cs),
(464,168,o),
(420,76,o),
(300,76,cs)
);
}
);
visible = 1;
width = 600;
}
);
unicode = 99;
},
{
color = 5;
glyphname = d;
lastChange = "2024-03-25 08:41:10 +0000";
layers = (
{
layerId = m01;
shapes = (
{
closed = 1;
nodes = (
(340,-16,o),
(388,16,o),
(416,56,c),
(428,56,l),
(436,16,l),
(452,0,l),
(516,0,l),
(532,16,l),
(532,760,l),
(516,776,l),
(444,776,l),
(428,760,l),
(428,512,l),
(416,512,l),
(388,552,o),
(340,592,o),
(268,592,cs),
(116,592,o),
(32,464,o),
(32,288,cs),
(32,112,o),
(120,-16,o),
(268,-16,cs)
);
},
{
closed = 1;
nodes = (
(188,76,o),
(136,160,o),
(136,288,cs),
(136,412,o),
(188,500,o),
(284,500,cs),
(372,500,o),
(436,412,o),
(436,288,cs),
(436,160,o),
(372,76,o),
(284,76,cs)
);
}
);
width = 588;
}
);
unicode = 100;
},
{
color = 5;
glyphname = e;
kernLeft = o;
kernRight = o;
lastChange = "2024-03-28 04:47:12 +0000";
layers = (
{
layerId = m01;
shapes = (
{
closed = 1;
nodes = (
(132,340,l),
(140,428,o),
(196,500,o),
(296,500,cs),
(396,500,o),
(452,428,o),
(460,340,c),
(448,328,l),
(144,328,l)
);
},
{
closed = 1;
nodes = (
(436,-16,o),
(536,76,o),
(548,160,c),
(532,176,l),
(464,176,l),
(448,164,l),
(428,116,o),
(368,76,o),
(296,76,cs),
(196,76,o),
(140,152,o),
(132,228,c),
(144,240,l),
(548,240,l),
(564,256,l),
(564,312,ls),
(564,456,o),
(472,592,o),
(296,592,cs),
(120,592,o),
(28,464,o),
(28,288,cs),
(28,112,o),
(120,-16,o),
(296,-16,cs)
);
}
);
width = 592;
},
{
associatedMasterId = m01;
layerId = "928E4258-B9EF-48BD-8062-CF1ACF70FDB5";
name = "Mar 13, 24 at 16:45";
shapes = (
{
closed = 1;
nodes = (
(476,-16,o),
(568,112,o),
(568,288,cs),
(568,464,o),
(476,592,o),
(300,592,cs),
(124,592,o),
(32,464,o),
(32,288,cs),
(32,112,o),
(124,-16,o),
(300,-16,cs)
);
},
{
closed = 1;
nodes = (
(180,76,o),
(136,168,o),
(136,288,cs),
(136,408,o),
(180,500,o),
(300,500,cs),
(420,500,o),
(464,408,o),
(464,288,cs),
(464,168,o),
(420,76,o),
(300,76,cs)
);
}
);
visible = 1;
width = 600;
}
);
unicode = 101;
},
{
color = 5;
glyphname = f;
kernLeft = f;
kernRight = f;
lastChange = "2024-03-27 17:53:34 +0000";
layers = (
{
layerId = m01;
shapes = (
{
closed = 1;
nodes = (
(192,0,l),
(208,16,l),
(208,476,l),
(220,488,l),
(312,488,l),
(328,504,l),
(328,560,l),
(312,576,l),
(220,576,l),
(208,588,l),
(208,628,ls),
(208,660,o),
(220,688,o),
(252,688,cs),
(312,688,l),
(328,704,l),
(328,760,l),
(312,776,l),
(252,776,ls),
(160,776,o),
(104,724,o),
(104,628,cs),
(104,588,l),
(92,576,l),
(24,576,l),
(8,560,l),
(8,504,l),
(24,488,l),
(96,488,l),
(104,476,l),
(104,16,l),
(120,0,l)
);
}
);
width = 336;
}
);
unicode = 102;
},
{
color = 5;
glyphname = g;
kernLeft = g;
kernRight = g;
lastChange = "2024-03-28 17:05:13 +0000";
layers = (
{
layerId = m01;
shapes = (
{
closed = 1;
nodes = (
(468,-216,o),
(532,-116,o),
(532,48,cs),
(532,560,l),
(516,576,l),
(460,576,l),
(444,560,l),
(428,496,l),
(416,496,l),
(392,552,o),
(336,592,o),
(268,592,cs),
(116,592,o),
(32,464,o),
(32,288,cs),
(32,112,o),
(120,-16,o),
(268,-16,cs),
(336,-16,o),
(400,16,o),
(424,72,c),
(436,72,l),
(436,64,ls),
(436,-92,o),
(368,-132,o),
(272,-132,cs),
(200,-132,o),
(176,-104,o),
(160,-68,c),
(144,-52,l),
(84,-52,l),
(68,-68,l),
(68,-84,l),
(80,-172,o),
(176,-216,o),
(272,-216,cs)
);
},
{
closed = 1;
nodes = (
(188,76,o),
(136,160,o),
(136,288,cs),
(136,412,o),
(188,500,o),
(284,500,cs),
(372,500,o),
(436,412,o),
(436,288,cs),
(436,160,o),
(372,76,o),
(284,76,cs)
);
}
);
width = 588;
},
{
associatedMasterId = m01;
layerId = "C19FDEAA-47BF-434E-A717-FE03DC2ED072";
name = "Mar 25, 24 at 15:29";
shapes = (
{
closed = 1;
nodes = (
(216,-120,o),
(184,-108,o),
(160,-64,c),
(152,-52,l),
(60,-52,l),
(48,-64,l),
(60,-152,o),
(136,-220,o),
(272,-220,cs),
(408,-220,o),
(532,-144,o),
(532,80,cs),
(532,564,l),
(520,576,l),
(444,576,l),
(428,564,l),
(420,520,l),
(408,520,l),
(408,520,o),
(360,588,o),
(264,588,cs),
(104,588,o),
(16,464,o),
(16,296,cs),
(16,124,o),
(104,4,o),
(264,4,cs),
(360,4,o),
(408,72,o),
(408,72,c),
(420,72,l),
(420,-52,o),
(376,-120,o),
(272,-120,cs)
);
},
{
closed = 1;
nodes = (
(420,160,o),
(360,104,o),
(272,104,cs),
(184,104,o),
(128,172,o),
(128,296,cs),
(128,416,o),
(184,484,o),
(272,484,cs),
(360,484,o),
(420,432,o),
(420,296,cs)
);
}
);
visible = 1;
width = 588;
}
);
unicode = 103;
},
{
color = 5;
glyphname = h;
lastChange = "2024-03-25 04:39:23 +0000";
layers = (
{
layerId = m01;
shapes = (
{
closed = 1;
nodes = (
(144,0,l),
(160,16,l),
(160,352,ls),
(160,448,o),
(204,504,o),
(300,504,cs),
(396,504,o),
(440,448,o),
(440,352,cs),
(440,16,l),
(456,0,l),
(528,0,l),
(544,16,l),
(544,336,ls),
(544,496,o),
(492,592,o),
(332,592,cs),
(260,592,o),
(208,560,o),
(172,512,c),
(160,512,l),
(160,784,l),
(144,800,l),
(72,800,l),
(56,784,l),
(56,16,l),
(72,0,l)
);
}
);
width = 592;
}
);
unicode = 104;
},
{
color = 5;
glyphname = i;
lastChange = "2024-03-24 04:23:05 +0000";
layers = (
{
layerId = m01;
shapes = (
{
closed = 1;
nodes = (
(144,672,l),
(160,688,l),
(160,784,l),
(144,800,l),
(72,800,l),
(56,784,l),
(56,688,l),
(72,672,l)
);
},
{
closed = 1;
nodes = (
(144,0,l),
(160,16,l),
(160,560,l),
(144,576,l),
(72,576,l),
(56,560,l),
(56,16,l),
(72,0,l)
);
}
);
width = 216;
}
);
unicode = 105;
},
{
color = 5;
glyphname = idotless;
lastChange = "2024-03-14 05:28:30 +0000";
layers = (
{
layerId = m01;
shapes = (
{
closed = 1;
nodes = (
(160,0,l),
(176,16,l),
(176,560,l),
(160,576,l),
(80,576,l),
(64,560,l),
(64,16,l),
(80,0,l)
);
}
);
width = 240;
}
);
unicode = 305;
},
{
color = 5;
glyphname = iacute;
lastChange = "2024-03-14 05:28:30 +0000";
layers = (
{
layerId = m01;
shapes = (
{
ref = idotless;
},
{
closed = 1;
nodes = (
(144,656,l),
(176,672,l),
(240,800,l),
(240,816,l),
(224,832,l),
(168,832,l),
(136,816,l),
(80,688,l),
(80,672,l),
(96,656,l)
);
}
);
width = 240;
}
);
unicode = 237;
},
{
color = 5;
glyphname = j;
lastChange = "2024-03-15 06:34:57 +0000";
layers = (
{
layerId = m01;
shapes = (
{
closed = 1;
nodes = (
(24,-200,ls),
(104,-200,o),
(176,-156,o),
(176,-52,cs),
(176,560,l),
(160,576,l),
(80,576,l),
(64,560,l),
(64,-52,ls),
(64,-88,o),
(52,-100,o),
(24,-100,cs),
(-28,-100,l),
(-44,-116,l),
(-44,-184,l),
(-28,-200,l)
);
},
{
closed = 1;
nodes = (
(160,656,l),
(176,672,l),
(176,784,l),
(160,800,l),
(80,800,l),
(64,784,l),
(64,672,l),
(80,656,l)
);
}
);
width = 232;
}
);
unicode = 106;
},
{
color = 5;
glyphname = k;
kernLeft = k;
kernRight = k;
lastChange = "2024-03-28 04:46:43 +0000";
layers = (
{
layerId = m01;
shapes = (
{
closed = 1;
nodes = (
(148,0,l),
(164,16,l),
(164,144,l),
(260,244,l),
(276,244,l),
(452,12,l),
(468,0,l),
(500,0,l),
(516,16,l),
(516,80,l),
(344,312,l),
(344,332,l),
(508,504,l),
(508,560,l),
(492,576,l),
(452,576,l),
(180,296,l),
(164,296,l),
(164,784,l),
(148,800,l),
(76,800,l),
(60,784,l),
(60,16,l),
(76,0,l)
);
}
);
width = 540;
},
{
associatedMasterId = m01;
layerId = "F2BFE652-8A33-44FC-82CF-E776843FA570";
name = "Mar 27, 24 at 21:12";
shapes = (
{
closed = 1;
nodes = (
(148,0,l),
(164,16,l),
(164,144,l),
(508,504,l),
(508,560,l),
(492,576,l),
(452,576,l),
(180,296,l),
(164,296,l),
(164,784,l),
(148,800,l),
(76,800,l),
(60,784,l),
(60,16,l),
(76,0,l)
);
}
);
visible = 1;
width = 540;
}
);
unicode = 107;
},
{
color = 5;
glyphname = l;
lastChange = "2024-03-24 03:50:31 +0000";
layers = (
{
layerId = m01;
shapes = (
{
closed = 1;
nodes = (
(144,0,l),
(160,16,l),
(160,784,l),
(144,800,l),
(72,800,l),
(56,784,l),
(56,16,l),
(72,0,l)
);
}
);
width = 216;
}
);
unicode = 108;
},
{
color = 5;
glyphname = m;
lastChange = "2024-03-27 07:20:51 +0000";
layers = (
{
layerId = m01;
shapes = (
{
closed = 1;
nodes = (
(136,0,l),
(152,16,l),
(152,352,ls),
(152,448,o),
(176,504,o),
(272,504,cs),
(368,504,o),
(392,448,o),
(392,352,cs),
(392,16,l),
(408,0,l),
(480,0,l),
(496,16,l),
(496,352,ls),
(496,448,o),
(520,504,o),
(616,504,cs),
(712,504,o),
(736,448,o),
(736,352,cs),
(736,16,l),
(752,0,l),
(824,0,l),
(840,16,l),
(840,352,ls),
(840,480,o),
(792,592,o),
(632,592,cs),
(552,592,o),
(496,560,o),
(472,512,c),
(456,512,l),
(440,560,o),
(384,592,o),
(304,592,cs),
(224,592,o),
(180,552,o),
(164,512,c),
(148,512,l),
(132,560,l),
(116,576,l),
(64,576,l),
(48,560,l),
(48,16,l),
(64,0,l)
);
}
);
width = 880;
}
);
unicode = 109;
},
{
color = 5;
glyphname = n;
lastChange = "2024-03-26 23:20:05 +0000";
layers = (
{
layerId = m01;
shapes = (
{
closed = 1;
nodes = (
(144,0,l),
(160,16,l),
(160,352,ls),
(160,448,o),
(204,504,o),
(300,504,cs),
(396,504,o),
(440,448,o),
(440,352,cs),
(440,16,l),
(456,0,l),
(528,0,l),
(544,16,l),
(544,336,ls),
(544,496,o),
(492,592,o),
(332,592,cs),
(252,592,o),
(200,560,o),
(168,512,c),
(156,512,l),
(140,560,l),
(124,576,l),
(72,576,l),
(56,560,l),
(56,16,l),
(72,0,l)
);
}
);
width = 592;
}
);
unicode = 110;
},
{
color = 5;
glyphname = o;
kernLeft = o;
kernRight = o;
lastChange = "2024-03-27 17:25:48 +0000";
layers = (
{
layerId = m01;
shapes = (
{
closed = 1;
nodes = (
(472,-16,o),
(564,112,o),
(564,288,cs),
(564,464,o),
(472,592,o),
(296,592,cs),
(120,592,o),
(28,464,o),
(28,288,cs),
(28,112,o),
(120,-16,o),
(296,-16,cs)
);
},
{
closed = 1;
nodes = (
(176,76,o),
(132,168,o),
(132,288,cs),
(132,408,o),
(176,500,o),
(296,500,cs),
(416,500,o),
(460,408,o),
(460,288,cs),
(460,168,o),
(416,76,o),
(296,76,cs)
);
}
);
width = 592;
}
);
unicode = 111;
},
{
color = 5;
glyphname = p;
lastChange = "2024-03-27 17:25:53 +0000";
layers = (
{
layerId = m01;
shapes = (
{
closed = 1;
nodes = (
(144,-200,l),
(160,-184,l),
(160,64,l),
(172,64,l),
(200,20,o),
(248,-16,o),
(320,-16,cs),
(472,-16,o),
(556,112,o),
(556,288,cs),
(556,464,o),
(468,592,o),
(320,592,cs),
(248,592,o),
(196,556,o),
(172,512,c),
(156,512,l),
(140,560,l),
(124,576,l),
(72,576,l),
(56,560,l),
(56,-184,l),
(72,-200,l)
);
},
{
closed = 1;
nodes = (
(216,76,o),
(152,164,o),
(152,288,cs),
(152,416,o),
(216,500,o),
(304,500,cs),
(400,500,o),
(452,416,o),
(452,288,cs),
(452,164,o),
(400,76,o),
(304,76,cs)
);
}
);
width = 584;
},
{
associatedMasterId = m01;
layerId = "D3BFE042-7938-4F42-8C60-3775559CC9EE";
name = "Mar 24, 24 at 21:35";
shapes = (
{
closed = 1;
nodes = (
(464,-16,o),
(556,112,o),
(556,288,cs),
(556,464,o),
(464,592,o),
(288,592,cs),
(112,592,o),
(20,464,o),
(20,288,cs),
(20,112,o),
(112,-16,o),
(288,-16,cs)
);
},
{
closed = 1;
nodes = (
(168,76,o),
(124,168,o),
(124,288,cs),
(124,408,o),
(168,500,o),
(288,500,cs),
(408,500,o),
(452,408,o),
(452,288,cs),
(452,168,o),
(408,76,o),
(288,76,cs)
);
}
);
visible = 1;
width = 592;
}
);
unicode = 112;
},
{
color = 5;
glyphname = q;
lastChange = "2024-03-15 09:11:44 +0000";
layers = (
{
layerId = m01;
shapes = (
{
closed = 1;
nodes = (
(464,576,l),
(448,560,l),
(432,520,l),
(416,520,l),
(392,560,o),
(344,592,o),
(272,592,cs),
(124,592,o),
(24,464,o),
(24,288,cs),
(24,112,o),
(120,-16,o),
(272,-16,cs),
(344,-16,o),
(392,24,o),
(416,64,c),
(432,64,l),
(432,-184,l),
(448,-200,l),
(528,-200,l),
(544,-184,l),
(544,560,l),
(528,576,l)
);
},
{
closed = 1;
nodes = (
(376,488,o),
(440,416,o),
(440,288,cs),
(440,164,o),
(376,88,o),
(288,88,cs),
(192,88,o),
(136,164,o),
(136,288,cs),
(136,416,o),
(192,488,o),
(288,488,cs)
);
}
);
width = 592;
}
);
unicode = 113;
},
{
color = 5;
glyphname = r;
kernLeft = n;
kernRight = r;
lastChange = "2024-03-27 07:38:18 +0000";
layers = (
{
layerId = m01;
shapes = (
{
closed = 1;
nodes = (
(144,0,l),
(160,16,l),
(160,320,ls),
(160,432,o),
(196,484,o),
(268,484,cs),
(304,484,l),
(320,500,l),
(320,560,l),
(304,576,l),
(288,576,ls),
(240,576,o),
(208,560,o),
(172,512,c),
(156,512,l),
(140,560,l),
(124,576,l),
(72,576,l),
(56,560,l),
(56,16,l),
(72,0,l)
);
}
);
width = 328;
},
{
associatedMasterId = m01;
layerId = "EFD813B6-53D8-4E5A-A399-47427410ECAA";
name = "Mar 24, 24 at 13:29";
shapes = (
{
closed = 1;
nodes = (
(144,0,l),
(160,16,l),
(160,352,ls),
(160,448,o),
(204,504,o),
(300,504,cs),
(396,504,o),
(440,448,o),
(440,352,cs),
(440,16,l),
(456,0,l),
(528,0,l),
(544,16,l),
(544,336,ls),
(544,496,o),
(492,592,o),
(332,592,cs),
(260,592,o),
(196,560,o),
(160,512,c),
(144,512,l),
(128,560,l),
(112,576,l),
(72,576,l),
(56,560,l),
(56,16,l),
(72,0,l)
);
}
);
visible = 1;
width = 360;
}
);
unicode = 114;
},
{
color = 5;
glyphname = s;
kernLeft = s;
kernRight = s;
lastChange = "2024-03-28 17:04:44 +0000";
layers = (
{
layerId = m01;
shapes = (
{
closed = 1;
nodes = (
(404,-16,o),
(472,76,o),
(472,160,cs),
(472,256,o),
(416,308,o),
(304,332,cs),
(192,356,o),
(132,368,o),
(132,424,cs),
(132,472,o),
(184,508,o),
(248,508,cs),
(328,508,o),
(364,476,o),
(364,416,c),
(380,400,l),
(448,400,l),
(464,416,l),
(464,536,o),
(376,592,o),
(248,592,cs),
(88,592,o),
(32,500,o),
(32,424,cs),
(32,328,o),
(104,284,o),
(216,260,cs),
(328,236,o),
(372,216,o),
(372,160,cs),
(372,116,o),
(328,68,o),
(248,68,cs),
(168,68,o),
(116,96,o),
(116,176,c),
(100,192,l),
(32,192,l),
(16,176,l),
(16,48,o),
(100,-16,o),
(248,-16,cs)
);
}
);
width = 488;
}
);
unicode = 115;
},
{
color = 5;
glyphname = t;
kernLeft = t;
kernRight = t;
lastChange = "2024-03-27 07:34:11 +0000";
layers = (
{
layerId = m01;
shapes = (
{
closed = 1;
nodes = (
(328,0,l),
(344,16,l),
(344,72,l),
(328,88,l),
(264,88,ls),
(232,88,o),
(216,104,o),
(216,136,cs),
(216,476,l),
(228,488,l),
(328,488,l),
(344,504,l),
(344,560,l),
(328,576,l),
(228,576,l),
(216,588,l),
(216,672,l),
(200,688,l),
(128,688,l),
(112,672,l),
(112,588,l),
(100,576,l),
(24,576,l),
(8,560,l),
(8,504,l),
(24,488,l),
(100,488,l),
(112,476,l),
(112,136,ls),
(112,40,o),
(168,0,o),
(264,0,cs)
);
}
);
width = 360;
}
);
unicode = 116;
},
{
color = 5;
glyphname = u;
lastChange = "2024-03-24 06:00:41 +0000";
layers = (
{
layerId = m01;
shapes = (
{
closed = 1;
nodes = (
(448,576,l),
(432,560,l),
(432,224,ls),
(432,128,o),
(388,72,o),
(292,72,cs),
(196,72,o),
(152,128,o),
(152,224,cs),
(152,560,l),
(136,576,l),
(64,576,l),
(48,560,l),
(48,240,ls),
(48,80,o),
(100,-16,o),
(260,-16,cs),
(332,-16,o),
(396,16,o),
(432,64,c),
(448,64,l),
(464,16,l),
(480,0,l),
(520,0,l),
(536,16,l),
(536,560,l),
(520,576,l)
);
}
);
width = 592;
}
);
unicode = 117;
},
{
color = 5;
glyphname = v;
kernLeft = v;
kernRight = v;
lastChange = "2024-03-28 01:20:47 +0000";
layers = (
{
layerId = m01;
shapes = (
{
closed = 1;
nodes = (
(312,0,l),
(328,16,l),
(512,504,l),
(512,560,l),
(496,576,l),
(448,576,l),
(432,560,l),
(272,120,l),
(256,120,l),
(96,560,l),
(80,576,l),
(32,576,l),
(16,560,l),
(16,504,l),
(200,16,l),
(216,0,l)
);
}
);
width = 528;
},
{
associatedMasterId = m01;
layerId = "AB412B74-10CC-4135-B60A-75AADCD4278F";
name = "Mar 27, 24 at 18:17";
shapes = (
{
closed = 1;
nodes = (
(96,-200,ls),
(224,-200,o),
(256,-196,o),
(328,0,cs),
(512,500,l),
(512,560,l),
(496,576,l),
(444,576,l),
(428,560,l),
(272,124,l),
(256,124,l),
(104,560,l),
(88,576,l),
(32,576,l),
(16,560,l),
(16,500,l),
(208,-32,l),
(208,-48,l),
(200,-72,ls),
(192,-100,o),
(168,-112,o),
(132,-112,cs),
(80,-112,l),
(64,-128,l),
(64,-184,l),
(80,-200,l)
);
}
);
visible = 1;
width = 528;
}
);
unicode = 118;
},
{
color = 5;
glyphname = w;
lastChange = "2024-03-15 09:29:21 +0000";
layers = (
{
layerId = m01;
shapes = (
{
closed = 1;
nodes = (
(260,0,l),
(276,16,l),
(388,416,l),
(404,416,l),
(516,16,l),
(532,0,l),
(628,0,l),
(644,16,l),
(780,484,l),
(780,560,l),
(764,576,l),
(704,576,l),
(688,560,l),
(588,172,l),
(572,172,l),
(460,560,l),
(444,576,l),
(352,576,l),
(336,560,l),
(220,172,l),
(208,172,l),
(104,560,l),
(88,576,l),
(32,576,l),
(16,560,l),
(16,484,l),
(152,16,l),
(168,0,l)
);
}
);
width = 796;
}
);
unicode = 119;
},
{
color = 5;
glyphname = x;
lastChange = "2024-03-15 09:31:32 +0000";
layers = (
{
layerId = m01;
shapes = (
{
closed = 1;
nodes = (
(76,0,l),
(92,16,l),
(260,208,l),
(280,208,l),
(444,16,l),
(460,0,l),
(500,0,l),
(516,16,l),
(516,92,l),
(344,284,l),
(344,300,l),
(504,484,l),
(504,560,l),
(488,576,l),
(452,576,l),
(436,560,l),
(280,376,l),
(260,376,l),
(104,560,l),
(88,576,l),
(52,576,l),
(36,560,l),
(36,484,l),
(196,300,l),
(196,284,l),
(24,92,l),
(24,16,l),
(40,0,l)
);
}
);
width = 540;
}
);
unicode = 120;
},
{
color = 5;
glyphname = y;
kernLeft = y;
kernRight = y;
lastChange = "2024-03-28 01:20:20 +0000";
layers = (
{
layerId = m01;
shapes = (
{
closed = 1;
nodes = (
(80,-200,ls),
(208,-200,o),
(240,-196,o),
(312,0,cs),
(496,500,l),
(496,560,l),
(480,576,l),
(428,576,l),
(412,560,l),
(256,116,l),
(240,116,l),
(84,560,l),
(68,576,l),
(16,576,l),
(0,560,l),
(0,500,l),
(192,-32,l),
(192,-48,l),
(184,-72,ls),
(176,-100,o),
(152,-112,o),
(116,-112,cs),
(64,-112,l),
(48,-128,l),
(48,-184,l),
(64,-200,l)
);
}
);
width = 496;
},
{
associatedMasterId = m01;
layerId = "C6739020-F6E6-4C6E-83E7-897205869B40";
name = "Mar 26, 24 at 11:24";
shapes = (
{
closed = 1;
nodes = (
(168,-200,l),
(272,-200,l),
(560,576,l),
(456,576,l)
);
},
{
closed = 1;
nodes = (
(0,576,l),
(288,-200,l),
(392,-200,l),
(104,576,l)
);
}
);
visible = 1;
width = 536;
}
);
unicode = 121;
},
{
color = 5;
glyphname = z;
lastChange = "2024-03-25 08:34:27 +0000";
layers = (
{
layerId = m01;
shapes = (
{
closed = 1;
nodes = (
(488,0,l),
(504,16,l),
(504,72,l),
(488,88,l),
(148,88,l),
(148,104,l),
(476,452,l),
(492,480,l),
(492,560,l),
(476,576,l),
(48,576,l),
(32,560,l),
(32,504,l),
(48,488,l),
(384,488,l),
(384,476,l),
(32,112,l),
(24,88,l),
(24,16,l),
(40,0,l)
);
}
);
width = 528;
}
);
unicode = 122;
},
{
color = 5;
glyphname = a.001;
kernLeft = a;
kernRight = a;
lastChange = "2024-03-14 05:28:30 +0000";
layers = (
{
layerId = m01;
shapes = (
{
closed = 1;
nodes = (
(320,-16,o),
(360,24,o),
(392,56,c),
(408,56,l),
(424,16,l),
(440,0,l),
(488,0,l),
(504,16,l),
(504,392,ls),
(504,528,o),
(432,592,o),
(280,592,cs),
(112,592,o),
(48,512,o),
(48,432,cs),
(48,416,l),
(64,400,l),
(144,400,l),
(160,416,l),
(160,424,ls),
(160,464,o),
(208,488,o),
(280,488,cs),
(360,488,o),
(392,464,o),
(392,376,cs),
(392,360,l),
(376,344,l),
(280,344,ls),
(128,344,o),
(24,296,o),
(24,168,cs),
(24,56,o),
(112,-16,o),
(224,-16,cs)
);
},
{
closed = 1;
nodes = (
(176,88,o),
(136,104,o),
(136,168,cs),
(136,232,o),
(168,248,o),
(280,248,cs),
(376,248,l),
(392,232,l),
(392,208,ls),
(392,136,o),
(336,88,o),
(240,88,cs)
);
}
);
width = 560;
}
);
},
{
color = 5;
glyphname = zero;
lastChange = "2024-03-15 05:56:43 +0000";
layers = (
{
layerId = m01;
shapes = (
{
closed = 1;
nodes = (
(476,-16,o),
(600,92,o),
(600,400,cs),
(600,708,o),
(476,816,o),
(316,816,cs),
(156,816,o),
(32,708,o),
(32,400,cs),
(32,92,o),
(156,-16,o),
(316,-16,cs)
);
},
{
closed = 1;
nodes = (
(212,92,o),
(144,172,o),
(144,400,cs),
(144,628,o),
(212,712,o),
(316,712,cs),
(420,712,o),
(488,628,o),
(488,400,cs),
(488,172,o),
(420,92,o),
(316,92,cs)
);
}
);
width = 632;
}
);
unicode = 48;
},
{
color = 5;
glyphname = one;
kernLeft = "1";
kernRight = "1";
lastChange = "2024-03-26 01:18:34 +0000";
layers = (
{
layerId = m01;
shapes = (
{
closed = 1;
nodes = (
(292,0,l),
(308,16,l),
(308,784,l),
(292,800,l),
(212,800,l),
(196,784,l),
(196,688,o),
(128,648,o),
(32,648,c),
(16,632,l),
(16,576,l),
(32,560,l),
(184,560,l),
(196,548,l),
(196,16,l),
(212,0,l)
);
}
);
width = 372;
}
);
unicode = 49;
},
{
color = 5;
glyphname = two;
kernLeft = "2";
kernRight = "2";
lastChange = "2024-03-21 03:25:45 +0000";
layers = (
{
layerId = m01;
shapes = (
{
closed = 1;
nodes = (
(552,0,l),
(568,16,l),
(568,88,l),
(552,104,l),
(192,104,l),
(192,120,l),
(360,252,ls),
(476,344,o),
(544,428,o),
(544,576,cs),
(544,692,o),
(476,816,o),
(292,816,cs),
(120,816,o),
(32,704,o),
(32,576,c),
(48,560,l),
(128,560,l),
(144,576,l),
(144,648,o),
(192,708,o),
(292,708,cs),
(396,708,o),
(432,656,o),
(432,576,cs),
(432,472,o),
(384,400,o),
(272,308,cs),
(48,128,l),
(32,96,l),
(32,16,l),
(44,0,l)
);
}
);
width = 600;
}
);
unicode = 50;
},
{
color = 5;
glyphname = three;
lastChange = "2024-03-21 03:25:30 +0000";
layers = (
{
backgroundImage = {
imagePath = "/Users/eli/Desktop/Screenshot 2024-03-20 at 7.50.10 PM.png";
locked = 1;
pos = (-7316,-824);
scale = (13.5481,13.5481);
};
layerId = m01;
shapes = (
{
closed = 1;
nodes = (
(484,-16,o),
(596,80,o),
(596,216,cs),
(596,328,o),
(528,384,o),
(480,408,c),
(480,424,l),
(528,456,o),
(564,508,o),
(564,564,cs),
(564,736,o),
(448,816,o),
(292,816,cs),
(116,816,o),
(16,716,o),
(16,592,c),
(32,576,l),
(112,576,l),
(128,592,l),
(128,648,o),
(172,708,o),
(292,708,cs),
(392,708,o),
(448,668,o),
(448,564,cs),
(448,508,o),
(416,464,o),
(332,464,cs),
(268,464,l),
(252,448,l),
(252,372,l),
(268,356,l),
(332,356,ls),
(408,356,o),
(476,320,o),
(476,216,cs),
(476,132,o),
(432,92,o),
(308,92,cs),
(192,92,o),
(132,156,o),
(132,212,c),
(116,228,l),
(32,228,l),
(16,212,l),
(16,88,o),
(136,-16,o),
(308,-16,cs)
);
}
);
width = 612;
}
);
unicode = 51;
},
{
color = 5;
glyphname = four;
kernLeft = four;
kernRight = four;
lastChange = "2024-03-27 00:03:37 +0000";
layers = (
{
layerId = m01;
shapes = (
{
closed = 1;
nodes = (
(404,0,l),
(420,16,l),
(420,224,l),
(432,236,l),
(516,236,l),
(532,252,l),
(532,316,l),
(516,332,l),
(432,332,l),
(420,344,l),
(420,784,l),
(404,800,l),
(240,800,l),
(224,784,l),
(-16,332,l),
(-16,252,l),
(0,236,l),
(296,236,l),
(308,224,l),
(308,16,l),
(324,0,l)
);
},
{
closed = 1;
nodes = (
(100,348,l),
(292,704,l),
(308,704,l),
(308,344,l),
(296,332,l),
(100,332,l)
);
}
);
width = 548;
}
);
unicode = 52;
},
{
color = 5;
glyphname = five;
lastChange = "2024-03-15 04:44:35 +0000";
layers = (
{
layerId = m01;
shapes = (
{
closed = 1;
nodes = (
(452,-16,o),
(556,72,o),
(556,276,cs),
(556,412,o),
(488,548,o),
(316,548,cs),
(220,548,o),
(184,512,o),
(152,480,c),
(136,480,l),
(152,680,l),
(168,696,l),
(472,696,l),
(488,712,l),
(488,784,l),
(472,800,l),
(68,800,l),
(52,784,l),
(28,380,l),
(44,364,l),
(112,364,l),
(128,380,l),
(160,412,o),
(212,448,o),
(292,448,cs),
(408,448,o),
(440,380,o),
(440,276,cs),
(440,164,o),
(396,92,o),
(280,92,cs),
(164,92,o),
(140,144,o),
(132,212,c),
(116,228,l),
(32,228,l),
(16,212,l),
(28,76,o),
(108,-16,o),
(280,-16,cs)
);
}
);
width = 572;
}
);
unicode = 53;
},
{
color = 5;
glyphname = six;
lastChange = "2024-03-15 04:56:18 +0000";
layers = (
{
layerId = m01;
shapes = (
{
closed = 1;
nodes = (
(476,-16,o),
(584,92,o),
(584,264,cs),
(584,424,o),
(492,528,o),
(332,528,cs),
(242,528,o),
(192,484,o),
(176,468,c),
(160,468,l),
(160,584,o),
(192,712,o),
(320,712,cs),
(400,712,o),
(444,696,o),
(456,624,c),
(472,608,l),
(556,608,l),
(572,624,l),
(560,752,o),
(468,816,o),
(332,816,cs),
(148,816,o),
(32,708,o),
(32,388,cs),
(32,80,o),
(144,-16,o),
(316,-16,cs)
);
},
{
closed = 1;
nodes = (
(228,92,o),
(160,148,o),
(160,264,cs),
(160,368,o),
(216,424,o),
(320,424,cs),
(432,424,o),
(468,356,o),
(468,252,cs),
(468,148,o),
(412,92,o),
(308,92,cs)
);
}
);
width = 616;
}
);
unicode = 54;
},
{
color = 5;
glyphname = seven;
lastChange = "2024-03-15 05:07:44 +0000";
layers = (
{
layerId = m01;
shapes = (
{
closed = 1;
nodes = (
(180,0,l),
(196,16,l),
(516,696,l),
(516,784,l),
(500,800,l),
(32,800,l),
(16,784,l),
(16,712,l),
(32,696,l),
(388,696,l),
(388,680,l),
(104,104,l),
(104,16,l),
(120,0,l)
);
}
);
width = 532;
}
);
unicode = 55;
},
{
color = 5;
glyphname = eight;
lastChange = "2024-03-15 05:07:01 +0000";
layers = (
{
layerId = m01;
shapes = (
{
closed = 1;
nodes = (
(488,-16,o),
(580,104,o),
(580,228,cs),
(580,344,o),
(512,396,o),
(464,420,c),
(464,436,l),
(500,456,o),
(556,504,o),
(556,596,cs),
(556,708,o),
(476,816,o),
(304,816,cs),
(132,816,o),
(52,708,o),
(52,596,cs),
(52,504,o),
(112,456,o),
(144,436,c),
(144,420,l),
(100,396,o),
(32,344,o),
(32,228,cs),
(32,104,o),
(120,-16,o),
(304,-16,cs)
);
},
{
closed = 1;
nodes = (
(212,468,o),
(168,528,o),
(168,596,cs),
(168,652,o),
(200,712,o),
(304,712,cs),
(408,712,o),
(440,652,o),
(440,596,cs),
(440,528,o),
(396,468,o),
(304,468,cs)
);
},
{
closed = 1;
nodes = (
(192,88,o),
(144,160,o),
(144,228,cs),
(144,308,o),
(192,376,o),
(304,376,cs),
(420,376,o),
(464,308,o),
(464,228,cs),
(464,160,o),
(420,88,o),
(304,88,cs)
);
}
);
width = 612;
}
);
unicode = 56;
},
{
color = 5;
glyphname = nine;
lastChange = "2024-03-15 05:17:38 +0000";
layers = (
{
layerId = m01;
shapes = (
{
closed = 1;
nodes = (
(476,-16,o),
(580,104,o),
(580,424,cs),
(580,720,o),
(476,816,o),
(292,816,cs),
(144,816,o),
(32,720,o),
(32,548,cs),
(32,388,o),
(132,288,o),
(280,288,cs),
(372,288,o),
(412,324,o),
(436,344,c),
(452,344,l),
(452,276,o),
(452,88,o),
(292,88,cs),
(224,88,o),
(184,112,o),
(172,180,c),
(156,196,l),
(68,196,l),
(52,180,l),
(64,52,o),
(156,-16,o),
(280,-16,cs)
);
},
{
closed = 1;
nodes = (
(200,388,o),
(144,448,o),
(144,548,cs),
(144,652,o),
(200,712,o),
(292,712,cs),
(384,712,o),
(452,664,o),
(452,548,cs),
(452,448,o),
(396,388,o),
(292,388,cs)
);
}
);
width = 612;
}
);
unicode = 57;
},
{
color = 5;
glyphname = period;
kernLeft = period;
kernRight = period;
lastChange = "2024-03-25 05:49:29 +0000";
layers = (
{
layerId = m01;
shapes = (
{
closed = 1;
nodes = (
(144,0,l),
(160,16,l),
(160,112,l),
(144,128,l),
(48,128,l),
(32,112,l),
(32,16,l),
(48,0,l)
);
}
);
width = 192;
}
);
unicode = 46;
},
{
glyphname = comma;
kernLeft = comma;
kernRight = comma;
lastChange = "2024-03-25 22:45:43 +0000";
layers = (
{
layerId = m01;
shapes = (
{
closed = 1;
nodes = (
(80,0,l),
(92,-12,l),
(92,-60,o),
(80,-104,o),
(32,-104,c),
(16,-120,l),
(16,-148,l),
(32,-164,l),
(112,-164,o),
(160,-96,o),
(160,-16,c),
(160,112,l),
(144,128,l),
(48,128,l),
(32,112,l),
(32,16,l),
(48,0,l)
);
}
);
width = 192;
},
{
associatedMasterId = m01;
layerId = "321F66BD-0B49-4544-8382-AF64E433CB5D";
name = "Mar 25, 24 at 15:39";
shapes = (
{
closed = 1;
nodes = (
(32,-168,l),
(108,-156,o),
(160,-96,o),
(160,-4,cs),
(160,132,l),
(32,132,l),
(32,0,l),
(92,0,l),
(92,-72,o),
(64,-96,o),
(32,-112,c)
);
}
);
visible = 1;
width = 192;
}
);
unicode = 44;
},
{
color = 5;
glyphname = colon;
kernLeft = colon;
kernRight = colon;
lastChange = "2024-03-15 03:13:15 +0000";
layers = (
{
layerId = m01;
shapes = (
{
closed = 1;
nodes = (
(144,0,l),
(160,16,l),
(160,112,l),
(144,128,l),
(48,128,l),
(32,112,l),
(32,16,l),
(48,0,l)
);
},
{
closed = 1;
nodes = (
(144,448,l),
(160,464,l),
(160,560,l),
(144,576,l),
(48,576,l),
(32,560,l),
(32,464,l),
(48,448,l)
);
}
);
width = 192;
}
);
unicode = 58;
},
{
color = 5;
glyphname = slash;
kernLeft = slash;
kernRight = slash;
lastChange = "2024-03-27 00:11:03 +0000";
layers = (
{
layerId = m01;
shapes = (
{
closed = 1;
nodes = (
(44,-96,l),
(552,832,l),
(552,904,l),
(536,920,l),
(504,920,l),
(0,0,l),
(0,-80,l),
(16,-96,l)
);
}
);
width = 552;
},
{
associatedMasterId = m01;
layerId = "F560680F-80A6-404B-A264-5AA7639F77BC";
name = "Mar 26, 24 at 17:09";
shapes = (
{
closed = 1;
nodes = (
(76,0,l),
(456,712,l),
(456,784,l),
(440,800,l),
(408,800,l),
(32,96,l),
(32,16,l),
(48,0,l)
);
}
);
visible = 1;
width = 488;
}
);
unicode = 47;
},
{
color = 5;
glyphname = hyphen;
lastChange = "2024-03-15 03:13:15 +0000";
layers = (
{
layerId = m01;
shapes = (
{
closed = 1;
nodes = (
(432,288,l),
(448,304,l),
(448,400,l),
(432,416,l),
(48,416,l),
(32,400,l),
(32,304,l),
(48,288,l)
);
}
);
width = 480;
}
);
unicode = 45;
},
{
glyphname = emdash;
lastChange = "2024-03-27 01:23:39 +0000";
layers = (
{
layerId = m01;
shapes = (
{
closed = 1;
nodes = (
(928,320,l),
(944,336,l),
(944,400,l),
(928,416,l),
(32,416,l),
(16,400,l),
(16,336,l),
(32,320,l)
);
}
);
width = 960;
}
);
unicode = 8212;
},
{
glyphname = quotesinglbase;
lastChange = "2024-03-23 20:48:55 +0000";
layers = (
{
layerId = m01;
shapes = (
{
closed = 1;
nodes = (
(144,0,l),
(160,16,l),
(160,112,l),
(144,128,l),
(48,128,l),
(32,112,l),
(32,16,l),
(48,0,l)
);
}
);
width = 192;
}
);
unicode = 8218;
},
{
color = 5;
glyphname = quoteright;
kernLeft = quoteright;
kernRight = quoteright;
lastChange = "2024-03-27 01:18:51 +0000";
layers = (
{
layerId = m01;
shapes = (
{
closed = 1;
nodes = (
(88,672,l),
(100,660,l),
(100,612,o),
(96,576,o),
(48,576,c),
(32,560,l),
(32,532,l),
(48,516,l),
(128,516,o),
(168,576,o),
(168,656,c),
(168,784,l),
(152,800,l),
(56,800,l),
(40,784,l),
(40,688,l),
(56,672,l)
);
}
